<svg width="58" height="52" viewBox="0 0 58 52" fill="none" xmlns="http://www.w3.org/2000/svg">
<rect x="39" width="5" height="36" fill="white"/>
<rect x="31" y="11" width="5" height="25" fill="white"/>
<rect x="22" y="21" width="5" height="15" fill="white"/>
<rect x="14" y="29" width="5" height="7" fill="white"/>
<path d="M18 52V42H20.0431V52H18Z" fill="white"/>
<path d="M22.1211 52V42H24.109L28.2504 48.678V42H30.1486V52H28.0986L24.0193 45.4789V52H22.1211Z" fill="white"/>
<path d="M32.4199 52V42H38.8067V43.6917H34.463V45.9086H38.4271V47.5935H34.463V50.3151H39V52H32.4199Z" fill="white"/>
<rect x="2" y="36" width="54" height="1" fill="white"/>
<rect y="27" width="58" height="1" fill="white"/>
<rect x="2" y="17" width="54" height="1" fill="white"/>
<rect x="8" y="7" width="42" height="1" fill="white"/>
</svg>
